<?xml version="1.0" standalone="no"?>
<!DOCTYPE svg PUBLIC "-//W3C//DTD SVG 20010904//EN"
 "http://www.w3.org/TR/2001/REC-SVG-20010904/DTD/svg10.dtd">
<svg version="1.0" xmlns="http://www.w3.org/2000/svg"
 width="263.000000pt" height="150.000000pt" viewBox="0 0 263.000000 150.000000"
 preserveAspectRatio="xMidYMid meet">
<metadata>
Created by potrace 1.10, written by Peter Selinger 2001-2011
</metadata>
<g transform="translate(0.000000,150.000000) scale(0.100000,-0.100000)"
fill="#ffffff" stroke="none">
<path d="M1110 1468 c-93 -35 -160 -86 -224 -172 -50 -67 -67 -82 -117 -104
-68 -29 -81 -52 -82 -141 0 -57 -1 -59 -29 -63 -27 -4 -28 -3 -28 38 0 51 -23
70 -63 55 -27 -10 -40 -53 -36 -121 1 -19 -8 -56 -20 -83 -12 -26 -25 -68 -28
-95 -5 -43 -9 -49 -46 -67 -54 -26 -78 -62 -90 -132 -22 -128 -13 -163 50
-189 17 -8 34 -23 38 -34 21 -65 170 -65 205 0 10 19 19 20 183 18 169 -3 172
-3 175 -25 2 -12 17 -34 33 -48 l31 -25 -34 -2 c-71 -3 156 -16 305 -17 149
-1 167 1 345 40 215 47 571 119 585 119 31 0 -28 -14 -303 -75 -168 -37 -313
-70 -323 -74 -10 -3 33 -5 95 -3 106 4 125 8 317 68 113 35 210 63 215 61 6
-2 -70 -31 -169 -65 -178 -60 -179 -61 -120 -60 49 1 80 10 175 53 63 29 137
62 163 73 53 24 57 46 5 32 -17 -5 -34 -7 -39 -5 -6 4 -265 -24 -464 -50 l-40
-5 30 14 c21 10 24 15 12 15 -11 1 -24 15 -32 36 -19 45 -3 135 25 142 10 3
21 11 24 19 8 21 -39 36 -89 30 -30 -4 -34 -3 -15 3 38 14 84 12 104 -2 22
-16 331 -14 350 2 7 6 43 11 81 13 l70 3 -3 215 c-2 118 -8 218 -13 221 -5 3
-160 59 -343 124 -292 103 -335 121 -340 141 -3 12 -17 36 -31 52 -52 62 -158
91 -325 91 -92 0 -126 -4 -170 -21z m86 -89 c-25 -28 -46 -55 -46 -60 0 -4 34
16 76 47 42 30 88 57 102 61 24 6 170 -12 181 -22 2 -3 -9 -19 -26 -35 -17
-16 -47 -61 -67 -99 -37 -70 -62 -94 -68 -63 -3 15 -23 17 -223 14 -121 -2
-228 -6 -237 -8 -31 -9 -19 11 42 73 70 70 143 112 220 129 95 21 97 19 46
-37z m407 -103 c20 -64 22 -91 22 -286 0 -175 -4 -229 -19 -287 -28 -110 -40
-93 -33 45 4 64 10 201 13 303 l7 185 -28 22 c-15 12 -38 22 -50 22 -35 0 -36
10 -4 57 30 43 32 44 50 27 11 -10 30 -49 42 -88z m387 -105 c352 -125 317
-95 319 -273 1 -86 -2 -108 -13 -108 -8 0 -17 7 -20 16 -10 26 -7 104 4 104 6
0 10 11 10 25 0 43 -18 28 -26 -21 -8 -53 2 -154 16 -168 7 -7 10 -5 10 3 0 7
5 9 10 6 6 -3 10 -23 10 -45 l0 -38 -162 -6 c-90 -3 -248 -7 -351 -9 -168 -3
-187 -2 -182 12 28 70 39 180 39 393 1 198 3 227 16 223 8 -3 152 -54 320
-114z m-422 55 c9 -19 11 -46 6 -95 l-6 -69 -52 14 c-28 8 -79 14 -114 14 -36
0 -62 4 -60 9 2 6 19 20 38 33 21 14 48 48 67 85 l33 61 37 -13 c23 -8 43 -23
51 -39z m-383 -26 c-38 -11 -357 -18 -347 -8 7 7 113 13 292 15 61 1 76 -1 55
-7z m130 -124 c-6 -97 -16 -129 -32 -112 -4 4 -1 12 5 18 7 7 11 32 10 58 l-1
45 -4 -42 c-5 -47 -14 -58 -59 -67 -29 -7 -32 -5 -36 24 -3 17 -2 48 1 68 6
36 8 37 49 37 43 0 54 8 26 19 -31 12 -63 6 -78 -16 -15 -22 -16 -22 -16 -2 0
11 6 28 13 37 15 22 109 58 121 47 5 -5 5 -56 1 -114z m-177 78 c19 -13 22
-25 23 -82 1 -49 3 -60 9 -42 7 21 8 19 9 -17 1 -37 -2 -43 -20 -43 -12 0 -18
-4 -13 -11 4 -8 29 -10 70 -6 35 2 64 3 64 2 0 -4 -99 -65 -104 -65 -3 0 -7
10 -9 23 -4 19 -4 19 -6 -5 0 -14 -7 -29 -13 -32 -8 -4 -9 -8 -3 -11 6 -3 9
-23 7 -44 -2 -21 1 -48 7 -60 14 -26 86 -47 115 -32 18 8 16 10 -16 10 -20 1
-48 5 -62 11 -24 9 -26 15 -26 64 0 54 0 54 48 81 26 15 55 35 65 43 9 8 20
12 25 8 4 -4 10 -67 13 -139 3 -83 6 -106 7 -61 3 118 12 164 32 164 32 0 42
26 38 100 l-3 72 38 -6 c20 -4 60 -11 88 -17 l51 -11 -6 -57 c-3 -31 -7 -125
-8 -209 l-3 -154 -111 7 c-108 7 -111 7 -140 -18 -28 -25 -29 -27 -27 -113 4
-118 6 -121 120 -105 48 6 103 14 121 17 27 5 32 3 32 -14 0 -24 10 -32 57
-42 27 -7 33 -5 29 6 -4 11 -2 12 14 1 11 -6 20 -14 20 -17 0 -3 -33 -6 -72
-7 -40 -1 -143 -10 -228 -21 -173 -23 -216 -25 -240 -12 -63 34 -44 220 27
267 20 13 23 12 39 -12 22 -34 22 -136 0 -190 -13 -30 -13 -35 -2 -26 11 10
15 8 18 -6 7 -31 28 57 29 122 1 48 3 55 10 35 6 -19 7 -14 3 20 -2 25 -15 65
-27 90 -43 87 -102 55 -152 -83 -37 -101 -39 -102 -283 -101 -233 0 -339 14
-379 48 -22 19 -24 25 -14 44 15 28 66 30 80 3 21 -38 141 -37 141 0 0 11 5
19 10 19 6 0 10 -7 10 -15 0 -17 38 -35 75 -35 13 0 37 11 53 25 27 23 39 25
123 26 91 0 211 15 146 18 l-28 1 20 26 c43 54 13 91 -62 79 -54 -9 -94 -29
-134 -68 -38 -35 -48 -32 -33 9 31 79 99 129 192 140 68 8 123 -7 189 -51 61
-42 76 -40 22 2 -71 56 -102 68 -183 68 -90 0 -161 -30 -197 -84 l-22 -33 -1
88 c0 49 -1 97 -3 107 -3 22 73 56 207 92 49 13 91 27 94 30 21 21 -198 -35
-269 -69 -47 -22 -55 -23 -73 -10 -31 22 -143 18 -191 -6 -21 -11 -40 -18 -42
-16 -2 1 7 18 20 37 47 71 156 94 397 86 l155 -5 -105 14 c-65 9 -141 13 -199
10 l-94 -6 6 61 c3 34 10 66 16 72 35 35 375 52 419 21z m-408 -426 c0 -109 3
-147 11 -142 9 5 10 47 6 145 -3 81 -1 139 4 139 5 0 9 -60 9 -134 0 -74 3
-141 6 -150 5 -13 -1 -16 -31 -16 l-37 0 7 144 c5 102 4 145 -4 150 -8 5 -11
-35 -11 -143 0 -94 -4 -151 -10 -151 -10 0 -15 302 -5 312 3 3 17 3 30 0 l25
-4 0 -150z m-104 121 c-3 -17 -6 -87 -6 -155 0 -87 -3 -124 -11 -124 -9 0 -10
39 -7 145 4 84 2 143 -3 139 -5 -3 -9 -68 -9 -145 l0 -139 -26 0 -26 0 4 124
c1 68 0 122 -4 119 -5 -2 -8 -58 -8 -124 0 -92 -3 -120 -12 -117 -18 6 -29
110 -20 183 7 56 7 53 13 -55 l5 -115 2 125 c2 115 4 126 23 138 20 13 20 12
18 -118 -1 -71 1 -133 4 -137 4 -3 7 57 7 135 0 153 -4 142 54 151 5 0 6 -13
2 -30z m34 -124 c0 -137 -2 -155 -16 -155 -15 0 -16 10 -11 83 4 45 7 115 7
155 0 41 4 72 10 72 6 0 10 -58 10 -155z m121 -49 l-8 -81 -1 125 c0 98 2 115
9 81 5 -25 5 -80 0 -125z m-301 -5 c0 -21 3 -53 6 -70 6 -31 6 -31 -32 -30
-22 0 -33 3 -26 6 19 7 14 48 -8 68 -26 23 -25 27 8 47 42 27 52 23 52 -21z
m-70 -43 c22 -27 17 -38 -16 -38 -24 0 -30 13 -18 44 8 21 12 20 34 -6z m617
6 c3 -10 -4 -26 -21 -42 -24 -24 -31 -26 -98 -23 -40 1 -74 4 -76 6 -2 2 15
16 37 30 63 42 147 57 158 29z m427 -59 c7 -45 0 -122 -12 -142 -11 -17 -128
-27 -137 -12 -5 7 -10 45 -13 84 -4 64 -2 75 17 94 17 17 33 21 80 21 l59 0 6
-45z m192 20 c14 -19 7 -105 -11 -124 -13 -13 -113 -41 -151 -41 -21 0 -21 3
-12 43 5 23 7 65 3 92 l-6 50 83 -2 c62 -2 85 -6 94 -18z m138 -4 c-8 -16 -16
-66 -18 -111 -3 -48 -9 -87 -17 -94 -9 -8 -10 -7 -4 9 15 40 16 59 1 27 -8
-18 -13 -39 -9 -48 4 -12 0 -15 -18 -12 -18 2 -27 13 -37 45 -13 41 -14 41
-40 27 -15 -8 -40 -13 -57 -13 -27 1 -26 2 15 15 54 17 70 36 70 85 0 22 8 46
19 60 18 22 22 23 42 11 19 -12 21 -12 16 1 -7 19 1 27 29 27 21 0 22 -1 8
-29z m-1176 -63 c-8 -24 -118 -22 -118 2 0 6 27 10 61 10 44 0 60 -3 57 -12z
m162 3 c0 -13 -26 -21 -70 -21 -37 0 -56 10 -43 24 10 9 113 7 113 -3z m-180
-148 c3 -3 -4 -11 -14 -19 -31 -22 -70 -17 -97 12 l-24 26 65 -7 c36 -4 67 -9
70 -12z"/>
<path d="M1680 1106 c0 -19 5 -36 11 -38 9 -3 10 -40 3 -142 -8 -123 -5 -160
13 -142 3 3 8 66 11 141 4 104 8 135 18 135 8 0 14 6 14 14 0 8 3 21 6 29 3
10 -5 18 -27 26 -46 16 -49 15 -49 -23z"/>
<path d="M1765 1058 c-18 -61 -19 -198 -2 -248 17 -50 48 -48 63 5 16 51 17
222 3 264 -18 50 -45 41 -64 -21z m51 -33 c8 -32 1 -171 -9 -181 -27 -27 -45
105 -24 179 9 34 25 35 33 2z"/>
<path d="M1857 932 c-3 -87 -3 -159 -1 -161 9 -10 14 8 16 61 2 43 7 58 20 61
40 11 33 172 -8 188 -21 7 -21 5 -27 -149z m43 53 c0 -19 -4 -35 -10 -35 -5 0
-10 16 -10 35 0 19 5 35 10 35 6 0 10 -16 10 -35z"/>
<path d="M1930 976 c0 -45 -3 -111 -6 -145 -5 -43 -3 -61 5 -61 7 0 11 20 11
55 0 40 4 55 14 55 19 0 26 22 26 86 0 61 -13 94 -35 94 -12 0 -15 -17 -15
-84z m38 -19 c-2 -18 -18 -29 -18 -12 0 66 1 70 11 52 6 -10 9 -28 7 -40z"/>
<path d="M2002 1023 c-13 -32 -8 -241 6 -254 9 -10 15 -10 25 -1 16 17 22 207
8 245 -12 31 -28 35 -39 10z m38 -118 c0 -59 -12 -96 -26 -82 -10 10 -10 140
0 156 15 23 26 -9 26 -74z"/>
<path d="M2062 890 c-2 -84 1 -130 8 -130 6 0 10 48 10 130 0 72 -3 130 -7
130 -5 0 -9 -59 -11 -130z"/>
<path d="M2092 888 c1 -113 2 -122 7 -58 l6 75 9 -72 c4 -40 12 -73 17 -73 5
0 9 45 9 101 0 57 4 98 9 95 5 -4 7 -50 4 -106 -4 -65 -2 -100 4 -100 6 0 12
47 15 118 5 118 2 131 -32 132 -12 0 -14 -12 -12 -57 2 -42 0 -54 -7 -43 -6 8
-11 36 -11 62 0 26 -4 50 -10 53 -7 4 -9 -40 -8 -127z"/>
<path d="M2204 865 c0 -66 1 -92 3 -57 2 34 2 88 0 120 -2 31 -3 3 -3 -63z"/>
<path d="M2223 865 c0 -91 2 -107 7 -65 l7 55 1 -52 c1 -29 7 -53 12 -53 12 0
2 90 -24 215 -2 11 -3 -34 -3 -100z"/>
<path d="M1147 532 c-36 -40 -30 -172 7 -172 24 0 38 37 39 101 1 41 -3 63
-14 74 -14 14 -17 14 -32 -3z"/>
<path d="M1699 520 c-13 -41 -1 -90 20 -90 17 0 32 75 21 104 -14 37 -27 32
-41 -14z"/>
<path d="M2247 606 c30 -26 44 -27 23 -1 -21 25 10 19 32 -7 15 -18 19 -34 16
-75 -3 -58 7 -62 17 -5 6 39 -7 91 -28 104 -7 4 -29 8 -50 8 l-38 0 28 -24z"/>
<path d="M2060 600 c-19 -4 -27 -8 -17 -9 26 -2 21 -17 -20 -56 -69 -64 -137
-57 -131 14 2 28 8 37 28 42 18 5 10 7 -29 8 -45 1 -52 -2 -47 -15 14 -37 18
-122 6 -143 -6 -13 -9 -25 -6 -28 3 -3 10 5 16 18 10 22 16 24 81 22 74 -1 99
11 99 48 0 15 7 19 35 19 32 0 35 2 35 29 0 16 3 36 6 45 7 17 1 18 -56 6z"/>
<path d="M2224 588 c-10 -16 -9 -91 2 -110 6 -12 9 5 9 53 0 38 -1 69 -2 69
-1 0 -5 -5 -9 -12z"/>
<path d="M2168 560 c-7 -23 -15 -29 -28 -25 -15 5 -16 0 -10 -41 8 -52 18 -62
59 -56 l29 4 -20 20 c-17 17 -20 30 -16 74 5 61 2 67 -14 24z"/>
<path d="M2247 564 c-10 -11 -8 -62 2 -68 13 -8 25 54 14 65 -5 5 -12 6 -16 3z"/>
<path d="M2285 540 c-7 -32 1 -54 16 -45 12 8 12 75 0 75 -5 0 -12 -13 -16
-30z"/>
<path d="M1804 537 c-11 -29 0 -92 16 -92 11 0 15 12 15 49 0 49 -19 74 -31
43z"/>
<path d="M2267 470 c-4 -15 0 -20 14 -20 17 0 18 3 9 20 -6 11 -12 20 -14 20
-2 0 -6 -9 -9 -20z"/>
<path d="M296 250 c-59 -18 -96 -73 -96 -145 0 -69 30 -95 111 -95 98 0 149
45 149 132 0 52 -21 85 -66 104 -37 16 -56 16 -98 4z m65 -70 c25 -14 25 -64
-1 -90 -23 -23 -33 -24 -61 -10 -12 7 -19 21 -19 38 0 37 20 62 58 71 2 1 12
-4 23 -9z"/>
<path d="M2393 239 c-79 -39 -106 -147 -52 -205 19 -21 32 -24 90 -24 81 0
101 15 75 55 -14 22 -20 24 -38 14 -32 -17 -68 3 -68 38 0 49 37 78 78 62 14
-5 25 -8 26 -7 0 2 12 15 25 30 l24 28 -36 15 c-49 20 -74 19 -124 -6z"/>
<path d="M10 231 c0 -11 -3 -27 -7 -37 -5 -15 -2 -16 25 -11 23 5 32 3 32 -6
0 -16 -19 -125 -26 -149 -5 -15 1 -18 35 -18 45 0 43 -2 61 107 12 72 12 72
39 67 23 -5 29 -2 34 18 13 48 12 48 -93 48 -92 0 -100 -2 -100 -19z"/>
<path d="M510 223 c0 -16 -9 -70 -19 -121 l-18 -93 41 3 c38 3 41 5 46 38 5
33 7 35 52 40 60 7 88 32 88 79 0 63 -28 81 -124 81 -65 0 -66 0 -66 -27z
m116 -45 c7 -10 -20 -38 -38 -38 -4 0 -8 11 -8 25 0 18 5 25 19 25 11 0 23 -5
27 -12z"/>
<path d="M750 248 c0 -2 -9 -55 -20 -118 -11 -63 -20 -116 -20 -117 0 -2 18
-3 39 -3 38 0 39 1 46 40 6 37 9 40 40 40 90 0 137 79 80 135 -21 22 -33 25
-95 25 -38 0 -70 -1 -70 -2z m107 -74 c6 -16 -12 -34 -34 -34 -14 0 -18 32 -6
43 12 12 34 7 40 -9z m-67 -49 c0 -8 -4 -15 -10 -15 -5 0 -10 7 -10 15 0 8 5
15 10 15 6 0 10 -7 10 -15z"/>
<path d="M1019 235 c-42 -23 -63 -64 -63 -123 -1 -47 3 -57 27 -78 39 -33 141
-35 182 -2 70 55 72 168 4 204 -35 18 -116 17 -150 -1z m99 -61 c29 -20 28
-49 -3 -79 -28 -29 -47 -31 -69 -9 -23 22 -20 51 9 79 28 29 33 30 63 9z"/>
<path d="M1255 153 c-9 -54 -19 -108 -22 -120 -5 -21 -2 -23 35 -23 l40 0 16
92 c9 51 19 105 22 121 5 26 4 27 -34 27 l-40 0 -17 -97z"/>
<path d="M1395 228 c-3 -13 -13 -67 -23 -121 l-19 -97 38 0 c42 0 49 10 49 76
0 24 3 44 8 44 4 0 16 -26 28 -58 20 -56 21 -57 62 -60 36 -3 42 0 47 20 6 29
35 201 35 211 0 4 -18 7 -40 7 -39 0 -40 -1 -41 -37 -1 -21 -4 -51 -8 -68 -6
-28 -8 -26 -31 38 -24 67 -24 67 -62 67 -31 0 -39 -4 -43 -22z m63 -55 c2 -12
-4 -23 -14 -27 -23 -9 -26 -3 -18 28 7 31 27 30 32 -1z m87 -111 c-6 -16 -8
-15 -21 2 -18 26 -18 34 4 38 19 4 27 -14 17 -40z"/>
<path d="M1647 243 c-4 -3 -7 -20 -7 -36 0 -27 2 -29 30 -23 27 5 30 3 25 -17
-3 -12 -11 -52 -18 -90 l-14 -67 42 0 41 0 15 88 14 87 33 -3 c26 -3 32 0 32
16 0 11 3 27 6 36 5 14 -7 16 -93 16 -55 0 -103 -3 -106 -7z"/>
<path d="M1945 238 c-2 -7 -11 -58 -20 -112 -9 -55 -18 -103 -21 -108 -3 -4
14 -8 38 -8 l44 0 18 108 c10 59 21 113 23 120 4 8 -7 12 -36 12 -25 0 -43 -5
-46 -12z"/>
<path d="M2056 143 c-10 -59 -21 -114 -23 -120 -4 -9 7 -13 35 -13 36 0 40 3
46 31 3 17 6 45 6 62 0 40 12 26 36 -40 18 -53 18 -53 61 -53 24 0 43 3 43 8
0 9 27 167 36 205 5 26 4 27 -34 27 -38 0 -40 -2 -46 -37 -3 -21 -6 -51 -6
-67 0 -39 -11 -26 -35 42 -19 56 -21 57 -60 60 l-41 3 -18 -108z m84 22 c0 -7
-9 -15 -20 -18 -21 -5 -25 7 -14 37 5 13 9 14 20 5 8 -6 14 -17 14 -24z m90
-69 c0 -8 -3 -22 -6 -30 -5 -13 -9 -14 -20 -5 -17 14 -18 36 -1 42 21 9 27 7
27 -7z"/>
<path d="M2556 71 c-26 -29 -17 -55 21 -59 39 -4 60 25 43 58 -14 25 -42 26
-64 1z"/>
</g>
</svg>
